  <svg xmlns="http://www.w3.org/2000/svg" version="1.1" width="1890" height="1417">
<path d="M0 0 C54.78 0 109.56 0 166 0 C166.4375 57.625 166.4375 57.625 166.56811523 75.62353516 C166.61150423 81.08501078 166.61150423 81.08501078 166.65589905 86.54647827 C166.67475429 88.9243159 166.69215334 91.30216541 166.70826721 93.68002319 C166.8031501 107.50701186 167.01878686 121.32236833 167.46899414 135.14208984 C167.5283988 136.98635024 167.5283988 136.98635024 167.58900356 138.86786842 C168.08609443 165.17741941 168.08609443 165.17741941 180.4375 187.625 C192.41500874 198.72610566 206.18481622 201.6976276 222.2265625 202.5546875 C223.0054483 202.59673309 223.78433411 202.63877869 224.58682251 202.68209839 C233.51527704 203.12611994 242.43747897 203.15472904 251.375 203.125 C252.24062561 203.12311676 253.10625122 203.12123352 253.99810791 203.11929321 C325.81697156 202.93737119 394.67323692 192.04371314 448 140 C450.47912397 137.43841037 452.75100245 134.76478004 455 132 C455.42216797 131.49549316 455.84433594 130.99098633 456.27929688 130.47119141 C481.17710564 100.71506537 496.41877995 66.40064887 508.10546875 29.6652832 C508.97448336 27.07602762 509.98565932 24.5358517 511 22 C517.6 22 524.2 22 531 22 C528.39111647 43.65556171 525.33650234 65.24177025 522.27666426 86.83725333 C521.52986546 92.11038911 520.78505783 97.38380621 520.03994751 102.65718079 C518.79230158 111.48494233 517.54311674 120.31248504 516.29296875 129.13989258 C514.84864136 139.33854687 513.40673536 149.53754131 511.96610105 159.73671788 C510.57439703 169.5891263 509.18107034 179.44130457 507.78697586 189.29337502 C507.19557146 193.47300819 506.60472375 197.6527195 506.01432419 201.83249474 C505.32122282 206.73879272 504.62669816 211.64488717 503.93106651 216.55082703 C503.67620011 218.34990294 503.42182207 220.14904811 503.16796684 221.94826698 C502.82167071 224.40207773 502.4736078 226.85563155 502.12509155 229.30912781 C501.97494695 230.37748187 501.97494695 230.37748187 501.82176912 231.46741885 C501.31619478 235.01252912 500.70317744 238.48411279 500 242 C302.66 242 105.32 242 -98 242 C-98 236.06 -98 230.12 -98 224 C-95.28652344 223.89042969 -92.57304688 223.78085938 -89.77734375 223.66796875 C-87.09613874 223.55154724 -84.41514156 223.43110717 -81.73413086 223.31030273 C-79.89674471 223.22962135 -78.05917499 223.1529986 -76.22143555 223.08081055 C-55.46382184 222.25956799 -31.42030759 220.29672854 -16.1875 204.375 C-2.24712604 187.64156363 -2.03272066 166.54617373 -1.45727539 145.76391602 C-1.43652454 145.04879762 -1.4157737 144.33367922 -1.39439404 143.59689057 C-0.94400086 127.99187253 -0.78209151 112.38841683 -0.68359375 96.77734375 C-0.66509601 94.26924388 -0.64625522 91.76114651 -0.6270752 89.25305176 C-0.55976793 80.14789733 -0.49899441 71.04269554 -0.4375 61.9375 C-0.293125 41.498125 -0.14875 21.05875 0 0 Z " fill="#000000" transform="translate(1095,812)"/>
<path d="M0 0 C191.07 0 382.14 0 579 0 C579 67.65 579 135.3 579 205 C572.07 205 565.14 205 558 205 C557.38125 202.09574219 557.38125 202.09574219 556.75 199.1328125 C549.07339086 163.74199955 539.81855781 125.36344163 516 97 C515.27039062 96.13117188 514.54078125 95.26234375 513.7890625 94.3671875 C483.28108594 59.3632986 438.59913319 46.14030649 393.73922729 42.75384521 C380.15405041 41.84436923 366.5762649 41.77570252 352.96484375 41.68359375 C350.67874845 41.66514397 348.39265626 41.64630502 346.10656738 41.6270752 C337.71691493 41.55918888 329.32720332 41.49877884 320.9375 41.4375 C302.148125 41.293125 283.35875 41.14875 264 41 C264 102.38 264 163.76 264 227 C209.22 227 154.44 227 98 227 C97.5625 173.0625 97.5625 173.0625 97.43188477 156.31665039 C97.17473409 124.79907865 97.17473409 124.79907865 96.64414787 93.28518486 C96.60873606 91.58868255 96.5759428 89.89212296 96.54614449 88.19551277 C96.20346146 69.26439141 95.07532929 51.24879286 81 37 C63.31463644 21.76757214 41.23493535 19.42535605 18.875 19.25 C17.02992123 19.22174409 15.18486746 19.19180387 13.33984375 19.16015625 C8.89299792 19.0843804 4.44776302 19.04280811 0 19 C0 12.73 0 6.46 0 0 Z " fill="#000000" transform="translate(997,364)"/>
<path d="M0 0 C1.71177429 -0.00855011 1.71177429 -0.00855011 3.45812988 -0.01727295 C5.86839895 -0.02667043 8.27868057 -0.03323588 10.68896484 -0.03710938 C14.27856661 -0.04670083 17.86756616 -0.07772797 21.45703125 -0.109375 C43.83105332 -0.21350238 65.79256327 1.94306352 87.71875 6.390625 C88.46757446 6.53963257 89.21639893 6.68864014 89.98791504 6.84216309 C122.89600228 13.41757244 154.31405776 24.30065485 185.56054688 36.33666992 C215.36338756 48.68402351 215.36338756 48.68402351 246.3515625 45.515625 C259.47095203 38.60635402 265.48799767 26.97240802 269.84375 13.203125 C270.97459389 8.88411881 271.93070786 4.57611632 272.84375 0.203125 C279.77375 0.203125 286.70375 0.203125 293.84375 0.203125 C293.84375 79.403125 293.84375 158.603125 293.84375 240.203125 C286.91375 240.203125 279.98375 240.203125 272.84375 240.203125 C272.286875 238.20894531 271.73 236.21476563 271.15625 234.16015625 C258.94330184 190.77082988 241.45964309 148.4379314 209.38427734 115.77880859 C207.76404985 114.12160602 206.17321048 112.43898806 204.58203125 110.75390625 C168.40954983 72.95024969 115.23833656 49.21304972 62.984375 47.8203125 C3.05101407 46.6064166 -51.23644349 65.81574695 -94.83203125 107.66015625 C-103.72548319 116.32349241 -112.08101877 124.98194274 -119.15625 135.203125 C-119.56101562 135.77949707 -119.96578125 136.35586914 -120.3828125 136.94970703 C-123.42379594 141.29546826 -126.33361159 145.71266846 -129.15625 150.203125 C-129.53104492 150.79867187 -129.90583984 151.39421875 -130.29199219 152.0078125 C-141.26547347 169.75134092 -148.46200707 189.49170849 -155.03125 209.203125 C-155.36585236 210.20483231 -155.36585236 210.20483231 -155.70721436 211.22677612 C-159.21955139 221.80340004 -162.16925447 232.44994109 -165.15625 243.203125 C-221.91625 243.203125 -278.67625 243.203125 -337.15625 243.203125 C-335.18324055 237.28409664 -333.20108695 231.66929684 -330.65625 226.015625 C-330.31150635 225.24935791 -329.9667627 224.48309082 -329.61157227 223.69360352 C-318.14603259 198.48053556 -304.74297681 174.42981488 -288.15625 152.203125 C-287.72505859 151.62175781 -287.29386719 151.04039062 -286.84960938 150.44140625 C-269.43803051 127.06549239 -249.28873873 104.02048987 -226.15625 86.203125 C-225.04405943 85.29379745 -223.93488547 84.38077264 -222.828125 83.46484375 C-200.27019208 64.88502659 -175.19802012 50.3091775 -149.15625 37.203125 C-148.06594482 36.6469751 -148.06594482 36.6469751 -146.95361328 36.07958984 C-108.6529944 16.64581307 -65.70537403 5.69786433 -23.15625 1.203125 C-22.33931671 1.11579605 -21.52238342 1.0284671 -20.68069458 0.93849182 C-13.77619004 0.2524472 -6.93603163 0.02776729 0 0 Z " fill="#000000" transform="translate(626.15625,347.796875)"/>
<path d="M0 0 C60.39 0 120.78 0 183 0 C185.97 12.87 188.94 25.74 192 39 C194.53189756 47.7465552 197.08380365 56.38931821 200 65 C200.27489258 65.83225098 200.54978516 66.66450195 200.83300781 67.52197266 C211.54498296 99.71675512 228.39919106 129.58184703 252 154 C252.88300781 154.93457031 253.76601563 155.86914062 254.67578125 156.83203125 C286.37856179 189.63592139 334.92510793 207.20103875 380.0847168 208.16113281 C381.87282886 208.1809708 383.6610164 208.19472113 385.44921875 208.203125 C386.42373489 208.20882507 387.39825104 208.21452515 388.40229797 208.22039795 C390.4586989 208.22978908 392.51511448 208.2363583 394.5715332 208.24023438 C397.63456509 208.2498341 400.6968936 208.2808705 403.75976562 208.3125 C421.52098011 208.4078765 439.08445631 206.72025306 456.4375 202.8125 C457.36522217 202.6060083 458.29294434 202.3995166 459.2487793 202.18676758 C476.81504599 198.09567071 493.81016404 191.92429069 510 184 C511.14927979 183.43974121 511.14927979 183.43974121 512.32177734 182.86816406 C536.47571921 170.95241784 557.92038515 154.84516408 578 137 C578.96164062 136.15050781 579.92328125 135.30101562 580.9140625 134.42578125 C588.63865512 127.44511377 596.00396654 120.09964399 603.375 112.75 C603.89737244 112.2303064 604.41974487 111.71061279 604.95794678 111.1751709 C610.85870321 105.2973692 616.60464086 99.35152161 622 93 C623.62006998 91.16230868 625.24426246 89.32823171 626.875 87.5 C627.63554688 86.6440625 628.39609375 85.788125 629.1796875 84.90625 C629.78039062 84.2771875 630.38109375 83.648125 631 83 C631.33 83 631.66 83 632 83 C636.34678777 140.98345473 636.34678777 140.98345473 627.04296875 153.078125 C622.51281952 158.31380798 616.99059678 162.34895977 611.14135742 166.00512695 C604.505418 170.21918315 598.58815185 175.49840132 592.8125 180.8125 C541.80455893 226.42277535 475.31868561 250.51466113 408 257 C407.11670013 257.08732895 406.23340027 257.1746579 405.32333374 257.26463318 C397.52442331 257.98076753 389.7821419 258.17525896 381.953125 258.203125 C380.63578369 258.21018463 379.31844238 258.21724426 377.96118164 258.22451782 C373.72411559 258.24408348 369.48710698 258.24921023 365.25 258.25 C364.16793526 258.25044186 364.16793526 258.25044186 363.06401062 258.25089264 C341.90198379 258.25229019 320.98104058 258.11385285 300 255 C298.56123168 254.7937097 297.12242785 254.58766695 295.68359375 254.38183594 C225.84510336 244.25652506 156.76962186 218.84540572 103.48730469 171.32421875 C102.16015162 170.14259068 100.81925319 168.97644239 99.4765625 167.8125 C87.70344572 157.48657698 76.62306577 146.35786244 67 134 C66.05095009 132.83757423 65.09893041 131.67756909 64.14453125 130.51953125 C57.17751293 122.02879094 50.86287486 113.28596573 45 104 C44.63342285 103.42378906 44.2668457 102.84757813 43.88916016 102.25390625 C36.51419095 90.58100748 30.23095908 78.3106489 24 66 C23.61956543 65.25524414 23.23913086 64.51048828 22.84716797 63.74316406 C0 18.69331805 0 18.69331805 0 0 Z " fill="#000000" transform="translate(276,812)"/>
<path d="M0 0 C3.67476104 2.63926136 5.64139524 6.18994616 8 10 C9.35139068 11.95431883 10.73145002 13.88643931 12.11328125 15.81933594 C13.66235928 17.98984644 15.19115903 20.17370089 16.71875 22.359375 C20.11449378 27.1898822 23.61095279 31.94265406 27.125 36.6875 C31.55121313 42.66711773 35.93922941 48.66833263 40.24926758 54.73217773 C43.58192597 59.42060833 46.94263105 64.0882482 50.3125 68.75 C50.85680664 69.50297363 51.40111328 70.25594727 51.96191406 71.03173828 C53.07609251 72.57281129 54.1903511 74.11382636 55.3046875 75.65478516 C57.01664608 78.0230274 58.72729483 80.39221005 60.4375 82.76171875 C61.00299561 83.54514648 61.56849121 84.32857422 62.15112305 85.13574219 C63.21259714 86.60636346 64.27396812 88.07705916 65.33520508 89.54785156 C68.28159841 93.62887786 71.23690975 97.70330232 74.19799805 101.77368164 C74.91191208 102.75510635 75.62582611 103.73653107 76.3613739 104.74769592 C76.90212051 105.49095627 77.44286713 106.23421661 78 107 C78.02331528 95.68944774 78.04101187 84.37890133 78.05181217 73.06832981 C78.05699944 67.81466883 78.06402026 62.56102447 78.07543945 57.30737305 C78.08641771 52.22395098 78.09230801 47.14054476 78.09487724 42.05711174 C78.09670488 40.13135466 78.10027277 38.20559831 78.10573006 36.2798481 C78.13779878 24.47900437 77.8517102 12.77165979 77 1 C80.81993741 -0.05743478 84.27946307 -0.09926423 88.25 -0.0625 C90.14492187 -0.04896484 90.14492187 -0.04896484 92.078125 -0.03515625 C93.04234375 -0.02355469 94.0065625 -0.01195312 95 0 C95.99698823 2.99096469 96.13164381 4.97728768 96.14476013 8.10142517 C96.15165863 9.15680481 96.15855713 10.21218445 96.16566467 11.29954529 C96.16827805 12.45745071 96.17089142 13.61535614 96.17358398 14.80834961 C96.180271 16.02821564 96.18695801 17.24808167 96.19384766 18.50491333 C96.20791706 21.16005228 96.22024193 23.81513627 96.22979546 26.47028923 C96.24527507 30.67868512 96.26922886 34.8870064 96.29469299 39.09535217 C96.36580825 51.06327583 96.42545876 63.03124341 96.47680664 74.99926758 C96.50523677 81.60814965 96.54069234 88.21695861 96.58346039 94.82576376 C96.61004314 98.99802424 96.62806496 103.17020205 96.63949764 107.34253013 C96.65088087 110.57076882 96.67497319 113.79891886 96.69702148 117.02709961 C96.69761063 118.16678696 96.69819977 119.3064743 96.69880676 120.48069763 C96.77346933 128.78379368 97.3583288 137.07498641 100 145 C94.20678573 147.5747619 88.09988152 149.02587306 82 147 C77.61265651 143.24844237 74.59831897 138.10342185 71.49560547 133.29638672 C69.59311328 130.37525686 67.57797677 127.54451563 65.55102539 124.70898438 C64.0424958 122.59699346 62.55109343 120.47373553 61.0625 118.34765625 C56.32577515 111.60330285 51.47656613 104.93981373 46.64111328 98.26611328 C43.92351827 94.513552 41.21205527 90.75656581 38.5 87 C37.41669638 85.49997854 36.33336304 83.99997854 35.25 82.5 C33.08333333 79.5 30.91666667 76.5 28.75 73.5 C28.2130249 72.7565332 27.6760498 72.01306641 27.12280273 71.24707031 C26.0466508 69.75693907 24.97064015 68.26670578 23.89477539 66.77636719 C21.07775591 62.87449825 18.25782345 58.97477897 15.43359375 55.078125 C14.55574219 53.86576172 14.55574219 53.86576172 13.66015625 52.62890625 C12.54518372 51.08918228 11.42935437 49.55007825 10.3125 48.01171875 C9.80589844 47.31175781 9.29929687 46.61179687 8.77734375 45.890625 C8.33640381 45.28250977 7.89546387 44.67439453 7.44116211 44.04785156 C5.57675619 41.39858223 3.79382162 38.69741793 2 36 C1.97676432 47.9357121 1.95902788 59.87141876 1.94818783 71.80714893 C1.94298349 77.35020055 1.93593058 82.89323662 1.92456055 88.4362793 C1.91364431 93.79199564 1.90770474 99.14769708 1.90512276 104.50342369 C1.90328419 106.54020103 1.8996941 108.57697761 1.89426994 110.61374855 C1.7418747 127.90199025 1.7418747 127.90199025 4 145 C0.13773965 146.79905658 -2.93812052 147.27111493 -7.1875 147.25 C-8.23292969 147.25515625 -9.27835938 147.2603125 -10.35546875 147.265625 C-13 147 -13 147 -15 145 C-16.00989339 142.01622123 -16.13260208 139.23221222 -16.15148926 136.09790039 C-16.16400475 134.61845947 -16.16400475 134.61845947 -16.17677307 133.10913086 C-16.18095749 132.03284424 -16.18514191 130.95655762 -16.18945312 129.84765625 C-16.19774643 128.70876953 -16.20603973 127.56988281 -16.21458435 126.39648438 C-16.23199285 123.91929518 -16.24715747 121.44208945 -16.26036072 118.96487427 C-16.28143875 115.02724005 -16.30846706 111.08968615 -16.33703613 107.15209961 C-16.39201059 99.47805672 -16.44008364 91.80397876 -16.48697662 84.12988281 C-16.54634311 74.42090568 -16.60731703 64.71194862 -16.67754889 55.00304317 C-16.70990628 50.48845783 -16.73555355 45.97386313 -16.7598877 41.45922852 C-16.84698644 27.94607917 -17.16855331 14.48877679 -18 1 C-11.97262147 -0.57871581 -6.16757134 -1.12770492 0 0 Z " fill="#000000" transform="translate(1437,634)"/>
<path d="M0 0 C0.74056641 0.00451172 1.48113281 0.00902344 2.24414062 0.01367188 C4.05862899 0.02537825 5.87307534 0.04331102 7.6875 0.0625 C13.0447198 10.7769396 9.79273499 30.28257259 9.75 41.9375 C9.729375 49.89875 9.70875 57.86 9.6875 66.0625 C33.4475 66.0625 57.2075 66.0625 81.6875 66.0625 C81.3575 44.6125 81.0275 23.1625 80.6875 1.0625 C84.87480624 0.01567344 88.66606931 -0.04905353 92.9375 0 C93.68257812 0.00451172 94.42765625 0.00902344 95.1953125 0.01367188 C97.0260764 0.02540754 98.85679873 0.0433415 100.6875 0.0625 C101.59873882 3.17880708 101.82053021 5.97986339 101.83898926 9.22171021 C101.84733292 10.26452652 101.85567657 11.30734283 101.86427307 12.38175964 C101.86845749 13.52051041 101.87264191 14.65926117 101.87695312 15.83251953 C101.88939308 17.63809578 101.88939308 17.63809578 101.90208435 19.48014832 C101.91949021 22.09653062 101.93514393 24.71285523 101.94786072 27.32925797 C101.96813567 31.47417395 101.99578483 35.61902084 102.02453613 39.7638855 C102.08458807 48.5717244 102.1363782 57.37960546 102.1875 66.1875 C102.24267102 75.67675467 102.2994046 85.16598814 102.36504889 94.655177 C102.38862453 98.09609862 102.41021017 101.53700888 102.42713928 104.97797012 C102.44662836 108.82405598 102.47177806 112.67006861 102.49804688 116.51611328 C102.50223129 117.64271866 102.50641571 118.76932404 102.51072693 119.93006897 C102.54522957 132.74506874 102.54522957 132.74506874 105.6875 145.0625 C101.17929684 146.78845833 97.32183889 147.38581898 92.5 147.4375 C91.28957031 147.46585938 90.07914063 147.49421875 88.83203125 147.5234375 C85.6875 147.0625 85.6875 147.0625 83.82421875 145.2890625 C81.73032499 141.18762111 81.5645176 137.58598 81.57397461 133.00878906 C81.57409546 131.77080566 81.57421631 130.53282227 81.57434082 129.25732422 C81.57945679 127.96068848 81.58457275 126.66405273 81.58984375 125.328125 C81.59085083 124.13300293 81.59185791 122.93788086 81.59289551 121.70654297 C81.59812779 117.24185222 81.61208905 112.77717515 81.625 108.3125 C81.645625 98.33 81.66625 88.3475 81.6875 78.0625 C57.9275 78.0625 34.1675 78.0625 9.6875 78.0625 C9.831875 88.00375 9.97625 97.945 10.125 108.1875 C10.16810303 111.31750488 10.21120605 114.44750977 10.25561523 117.67236328 C10.29374893 120.15918522 10.33221897 122.64600204 10.37109375 125.1328125 C10.38756958 126.41921631 10.40404541 127.70562012 10.42102051 129.03100586 C10.44120239 130.26874756 10.46138428 131.50648926 10.48217773 132.78173828 C10.50549416 134.38724045 10.50549416 134.38724045 10.52928162 136.025177 C10.68961209 139.10304577 11.12186748 142.03508069 11.6875 145.0625 C7.56620434 147.02129071 4.1077829 147.38924859 -0.4375 147.4375 C-1.65695312 147.46585938 -2.87640625 147.49421875 -4.1328125 147.5234375 C-7.3125 147.0625 -7.3125 147.0625 -8.98673058 145.3210907 C-10.48078644 142.77580597 -10.69233208 141.39071902 -10.70449829 138.46411133 C-10.72113777 137.08564026 -10.72113777 137.08564026 -10.7381134 135.67932129 C-10.7336042 134.17710022 -10.7336042 134.17710022 -10.72900391 132.64453125 C-10.73758926 131.5836731 -10.74617462 130.52281494 -10.75502014 129.42980957 C-10.78016789 125.91147282 -10.78447157 122.39341862 -10.7890625 118.875 C-10.80338187 116.41755318 -10.81914056 113.96011436 -10.83627319 111.50268555 C-10.87821598 105.01336275 -10.90313126 98.52408938 -10.92376709 92.03466797 C-10.95947649 81.70592115 -11.02128843 71.37729812 -11.08225632 61.04867554 C-11.1010819 57.46645103 -11.11300904 53.88425886 -11.12368774 50.30200195 C-11.18941374 33.8618949 -11.40531866 17.40976863 -13.3125 1.0625 C-8.8746439 -0.04915232 -4.54293614 -0.05277763 0 0 Z " fill="#000000" transform="translate(1153.3125,633.9375)"/>
<path d="M0 0 C2.67545837 3.37671811 3.22348237 6.34381971 2.875 10.60546875 C2.375 12.625 2.375 12.625 0.5625 15.125 C-4.04966244 17.29542938 -8.57798928 17.44822204 -13.625 17.625 C-14.02589844 16.98433594 -14.42679688 16.34367188 -14.83984375 15.68359375 C-21.46374153 5.60505541 -28.71631559 -0.24466242 -40.5 -3.0625 C-54.72653134 -4.48515313 -66.37513003 -1.54279592 -77.7421875 7.265625 C-87.17350197 15.70610098 -92.53942144 28.35283523 -94.625 40.625 C-94.81578125 41.67816406 -95.0065625 42.73132813 -95.203125 43.81640625 C-97.43175888 63.9360177 -93.87407413 85.16848181 -81.453125 101.4765625 C-73.97535357 110.21781944 -65.65762294 115.61910008 -54.0402832 116.9128418 C-51.43611 117.02518257 -48.85618416 117.04126076 -46.25 117 C-45.33532959 116.99202393 -44.42065918 116.98404785 -43.47827148 116.97583008 C-34.10300337 116.77897187 -25.89910803 115.19753338 -17.625 110.625 C-16.965 110.625 -16.305 110.625 -15.625 110.625 C-15.955 95.775 -16.285 80.925 -16.625 65.625 C-30.98 66.615 -30.98 66.615 -45.625 67.625 C-47.11535891 62.40874381 -47.87241966 59.69710297 -47.625 54.625 C-44.30152284 53.8805885 -41.23817456 53.50209869 -37.8347168 53.51147461 C-36.45385139 53.51158791 -36.45385139 53.51158791 -35.04508972 53.51170349 C-33.57450859 53.51944542 -33.57450859 53.51944542 -32.07421875 53.52734375 C-31.06027542 53.5287587 -30.04633209 53.53017365 -29.00166321 53.53163147 C-25.77191179 53.53721672 -22.54223038 53.54976655 -19.3125 53.5625 C-17.11914163 53.5675169 -14.92578217 53.57207948 -12.73242188 53.57617188 C-7.36325747 53.58718132 -1.99413374 53.6039048 3.375 53.625 C4.12754705 57.00954777 4.52287904 60.19113904 4.59960938 63.65551758 C4.63338684 65.11777519 4.63338684 65.11777519 4.66784668 66.60957336 C4.73934433 71.04797842 4.79632189 75.48623203 4.83496094 79.92504883 C4.86159479 82.26152006 4.90254883 84.5978731 4.95800781 86.93383789 C5.03729248 90.31704819 5.07029059 93.69802717 5.09375 97.08203125 C5.12674194 98.11874466 5.15973389 99.15545807 5.19372559 100.22358704 C5.17540128 106.90631855 3.88522199 110.31806868 -0.86190796 115.07214355 C-18.36589873 130.48891379 -40.43139075 131.99561042 -62.625 130.625 C-78.0716979 128.75594057 -92.66105443 120.69313213 -102.87890625 109.05859375 C-117.29451195 90.26633356 -120.77939085 67.55520878 -117.875 44.5 C-114.74101944 25.2854571 -106.35902172 8.09639828 -90.9375 -4.1875 C-82.27516237 -10.35278622 -72.23575171 -14.98946383 -61.625 -16.375 C-60.16126953 -16.57416016 -60.16126953 -16.57416016 -58.66796875 -16.77734375 C-37.49825801 -18.97071308 -15.5434753 -15.61577054 0 0 Z " fill="#000000" transform="translate(1672.625,650.375)"/>
<path d="M0 0 C2.12914068 2.37776645 3.75824982 4.85580597 5.46484375 7.5546875 C6.3450567 8.73926364 7.23795471 9.91447748 8.140625 11.08203125 C19.34230768 25.57767409 29.83882435 40.63508463 40.46484375 55.5546875 C44.87080487 51.42768853 48.3601721 46.86929323 51.90234375 41.9921875 C52.5070752 41.16444824 53.11180664 40.33670898 53.73486328 39.48388672 C58.15070639 33.41623766 62.51088621 27.30954299 66.83984375 21.1796875 C67.43716309 20.34848389 68.03448242 19.51728027 68.64990234 18.66088867 C71.2345195 15.01161225 73.60259478 11.51844298 75.3828125 7.40625 C78.2115066 1.21134273 78.2115066 1.21134273 81.46484375 -1.4453125 C88.34575312 -2.97236301 95.52263676 -2.24061685 102.46484375 -1.4453125 C97.6152284 12.00926137 86.86291809 24.12860817 78.46484375 35.5546875 C77.87977051 36.35132813 77.29469727 37.14796875 76.69189453 37.96875 C75.50134494 39.58870482 74.31001964 41.20808984 73.11791992 42.8269043 C71.94062993 44.4260983 70.76498699 46.02650624 69.59106445 47.62817383 C66.79869089 51.42985806 63.97737427 55.19829145 61.06640625 58.91015625 C60.54191895 59.59053955 60.01743164 60.27092285 59.47705078 60.97192383 C58.49558544 62.24256809 57.49984813 63.50236227 56.48779297 64.7487793 C53.97241187 67.99181651 53.97241187 67.99181651 53.77734375 71.94140625 C56.27904466 75.81556807 59.07894551 79.39819819 61.96484375 82.9921875 C66.23376995 88.39062869 70.44903671 93.79514726 74.40234375 99.4296875 C78.54666597 105.32262825 82.82757529 111.10542342 87.15234375 116.8671875 C87.77036865 117.69138184 88.38839355 118.51557617 89.02514648 119.36474609 C90.83168676 121.76654393 92.64661054 124.16173246 94.46484375 126.5546875 C95.08383545 127.37509521 95.70282715 128.19550293 96.34057617 129.04077148 C96.94619385 129.83427002 97.55181152 130.62776855 98.17578125 131.4453125 C98.71380371 132.15333008 99.25182617 132.86134766 99.80615234 133.59082031 C101.5297458 135.63153061 103.34880637 137.28800284 105.40234375 138.9921875 C106.41296875 139.8378125 107.42359375 140.6834375 108.46484375 141.5546875 C108.46484375 142.2146875 108.46484375 142.8746875 108.46484375 143.5546875 C101.56461888 146.87107465 92.08088872 147.03236416 84.8046875 144.703125 C77.40506298 140.32512574 72.46702035 132.36747762 67.46484375 125.5546875 C66.34702895 124.05288293 65.22851487 122.55159864 64.109375 121.05078125 C59.29238068 114.56711631 54.52703202 108.04744884 49.82421875 101.48046875 C49.23882324 100.66416992 48.65342773 99.84787109 48.05029297 99.00683594 C46.93888977 97.45410763 45.83094059 95.89889912 44.72705078 94.34082031 C42.18853759 90.79032676 39.70020138 87.51914198 36.46484375 84.5546875 C36.11405762 85.03075439 35.76327148 85.50682129 35.40185547 85.99731445 C34.33393353 87.44663708 33.26597765 88.89593471 32.19799805 90.34521484 C30.944011 92.04718386 29.69027333 93.74933663 28.43676758 95.45166016 C25.2083408 99.83530802 21.97644701 104.21627569 18.734375 108.58984375 C10.38839596 119.85883329 2.25982247 131.222331 -5.44140625 142.9453125 C-6.53515625 144.5546875 -6.53515625 144.5546875 -7.53515625 145.5546875 C-10.39783192 145.62793918 -13.23587525 145.64706955 -16.09765625 145.6171875 C-16.90396484 145.61267578 -17.71027344 145.60816406 -18.54101562 145.60351562 C-20.53909381 145.59169268 -22.53713408 145.57375664 -24.53515625 145.5546875 C-25.19601189 134.93489113 -15.69640685 126.02512692 -9.50488281 118.02172852 C-6.11123841 113.63448002 -2.79699935 109.21047978 0.40234375 104.6796875 C4.44059423 98.96366108 8.56026927 93.31177102 12.71484375 87.6796875 C13.29355225 86.89480957 13.87226074 86.10993164 14.46850586 85.30126953 C15.02932861 84.54185059 15.59015137 83.78243164 16.16796875 83 C16.71001953 82.25782227 17.25207031 81.51564453 17.81054688 80.75097656 C18.93080684 79.26368928 20.09302298 77.80725499 21.29101562 76.38183594 C22.85297346 74.48922528 24.26731644 72.69636775 25.46484375 70.5546875 C25.35978484 67.86065785 25.35978484 67.86065785 23.46484375 65.5546875 C23.10052246 65.02955566 22.73620117 64.50442383 22.36083984 63.96337891 C21.00260522 62.06058647 19.58501046 60.21453747 18.15234375 58.3671875 C17.05836471 56.93476181 15.96597259 55.50112305 14.875 54.06640625 C14.31055176 53.32438965 13.74610352 52.58237305 13.16455078 51.81787109 C10.41002715 48.15018451 7.75502785 44.41249429 5.08984375 40.6796875 C-4.03664208 27.96121275 -13.60502842 15.58956216 -23.83984375 3.7421875 C-25.53515625 1.5546875 -25.53515625 1.5546875 -25.53515625 -0.4453125 C-17.93845867 -2.24172596 -7.02827283 -4.00687357 0 0 Z " fill="#000000" transform="translate(893.53515625,635.4453125)"/>
<path d="M0 0 C1.46052788 0.01149955 2.92105874 0.02262443 4.3815918 0.03344727 C6.26551636 0.04782837 6.26551636 0.04782837 8.1875 0.0625 C14.44298729 12.84600556 19.82608249 25.87186302 25 39.125 C25.82149175 41.21622324 26.64360774 43.30720135 27.46630859 45.39794922 C29.17711654 49.74724281 30.8852498 54.09757185 32.59130859 58.44873047 C36.40964126 68.18230924 40.25464891 77.90532949 44.10214233 87.62741089 C45.2712125 90.58311479 46.43816402 93.5396474 47.60473633 96.49633789 C49.41825104 101.08891676 51.24055985 105.67790413 53.07092285 110.26379395 C53.84308389 112.19921934 54.61339041 114.13538527 55.38220215 116.07214355 C56.57829605 119.07969476 57.7840266 122.08321633 58.9921875 125.0859375 C59.35369904 125.99872467 59.71521057 126.91151184 60.087677 127.85195923 C62.0432176 132.68056304 64.14612844 136.83369324 67.1875 141.0625 C67.88179379 142.3816582 68.56280495 143.70899406 69.1875 145.0625 C64.7528437 146.74577655 60.92731417 147.4116482 56.1875 147.5 C55.011875 147.53996094 53.83625 147.57992187 52.625 147.62109375 C48.35050583 146.92648845 45.90463942 145.32455751 43.1875 142.0625 C41.58500139 139.43993986 40.40721326 136.71797323 39.25 133.875 C38.91935547 133.09632568 38.58871094 132.31765137 38.24804688 131.51538086 C37.20634933 129.03936501 36.19351212 126.55321072 35.1875 124.0625 C34.84444824 123.22138672 34.50139648 122.38027344 34.14794922 121.51367188 C33.14981327 119.05511542 32.16448934 116.59203033 31.1875 114.125 C30.88465088 113.36227783 30.58180176 112.59955566 30.26977539 111.8137207 C29.09031595 108.76179588 28.1875 106.36372661 28.1875 103.0625 C7.7275 103.0625 -12.7325 103.0625 -33.8125 103.0625 C-34.8025 106.3625 -35.7925 109.6625 -36.8125 113.0625 C-37.43065044 114.80046051 -38.07002353 116.53137841 -38.75 118.24609375 C-39.08604248 119.10614014 -39.42208496 119.96618652 -39.76831055 120.85229492 C-40.11289307 121.7260376 -40.45747559 122.59978027 -40.8125 123.5 C-43.35663366 129.99569694 -45.68558242 136.30965371 -46.94921875 143.19921875 C-47.8125 145.0625 -47.8125 145.0625 -50.00390625 146.3203125 C-53.13581168 147.14793702 -55.826073 147.29384322 -59.0625 147.25 C-60.11953125 147.24355469 -61.1765625 147.23710938 -62.265625 147.23046875 C-64.8125 147.0625 -64.8125 147.0625 -65.8125 146.0625 C-66.21586561 140.57445515 -65.12963842 136.1895051 -63.20703125 131.1171875 C-62.93591019 130.37733612 -62.66478912 129.63748474 -62.38545227 128.87521362 C-59.8304793 121.96186553 -57.11824903 115.11017161 -54.34851074 108.28048706 C-52.8270347 104.52752377 -51.31901069 100.76914315 -49.80859375 97.01171875 C-49.48863434 96.21667435 -49.16867493 95.42162994 -48.83901978 94.60249329 C-42.39056683 78.56860717 -36.0622891 62.48654449 -29.73486328 46.40460205 C-28.88095854 44.23633269 -28.02494045 42.06891412 -27.16796875 39.90185547 C-22.10959168 27.10189399 -17.33611918 14.37807144 -13.8125 1.0625 C-9.18807639 -0.11445751 -4.73248229 -0.05116931 0 0 Z M-3.8125 25.0625 C-4.25005615 26.18406494 -4.6876123 27.30562988 -5.13842773 28.46118164 C-6.44111802 31.80026056 -7.74397133 35.13927583 -9.046875 38.47827148 C-10.51746309 42.24710564 -11.98744677 46.01617479 -13.45703125 49.78540039 C-16.58535102 57.80713689 -19.71428592 65.82843982 -22.87890625 73.8359375 C-23.30051025 74.90448975 -23.72211426 75.97304199 -24.15649414 77.07397461 C-24.90934745 78.97956002 -25.66490804 80.88407879 -26.42358398 82.78735352 C-26.74786377 83.60905029 -27.07214355 84.43074707 -27.40625 85.27734375 C-27.68146484 85.96948975 -27.95667969 86.66163574 -28.24023438 87.37475586 C-28.91953808 89.08115938 -28.91953808 89.08115938 -28.8125 91.0625 C-11.6525 91.0625 5.5075 91.0625 23.1875 91.0625 C17.58187013 76.40162187 11.93052079 61.75921235 6.19973755 47.14678955 C5.52462036 45.42318395 4.85134238 43.69885683 4.17990112 41.97381592 C3.22915485 39.53261148 2.27168823 37.09414761 1.3125 34.65625 C1.02641373 33.91778839 0.74032745 33.17932678 0.4455719 32.41848755 C-1.13867439 28.40313784 -1.13867439 28.40313784 -3.8125 25.0625 Z " fill="#000000" transform="translate(1339.8125,633.9375)"/>
<path d="M0 0 C1.46052788 0.01149955 2.92105874 0.02262443 4.3815918 0.03344727 C6.26551636 0.04782837 6.26551636 0.04782837 8.1875 0.0625 C14.44298729 12.84600556 19.82608249 25.87186302 25 39.125 C25.82149175 41.21622324 26.64360774 43.30720135 27.46630859 45.39794922 C29.17711654 49.74724281 30.8852498 54.09757185 32.59130859 58.44873047 C36.40964126 68.18230924 40.25464891 77.90532949 44.10214233 87.62741089 C45.2712125 90.58311479 46.43816402 93.5396474 47.60473633 96.49633789 C49.41825104 101.08891676 51.24055985 105.67790413 53.07092285 110.26379395 C53.84308389 112.19921934 54.61339041 114.13538527 55.38220215 116.07214355 C56.57829605 119.07969476 57.7840266 122.08321633 58.9921875 125.0859375 C59.35369904 125.99872467 59.71521057 126.91151184 60.087677 127.85195923 C62.0432176 132.68056304 64.14612844 136.83369324 67.1875 141.0625 C67.88179379 142.3816582 68.56280495 143.70899406 69.1875 145.0625 C64.7528437 146.74577655 60.92731417 147.4116482 56.1875 147.5 C55.011875 147.53996094 53.83625 147.57992187 52.625 147.62109375 C48.35050583 146.92648845 45.90463942 145.32455751 43.1875 142.0625 C41.58500139 139.43993986 40.40721326 136.71797323 39.25 133.875 C38.91935547 133.09632568 38.58871094 132.31765137 38.24804688 131.51538086 C37.20634933 129.03936501 36.19351212 126.55321072 35.1875 124.0625 C34.84444824 123.22138672 34.50139648 122.38027344 34.14794922 121.51367188 C33.14981327 119.05511542 32.16448934 116.59203033 31.1875 114.125 C30.88465088 113.36227783 30.58180176 112.59955566 30.26977539 111.8137207 C29.09031595 108.76179588 28.1875 106.36372661 28.1875 103.0625 C7.7275 103.0625 -12.7325 103.0625 -33.8125 103.0625 C-34.8025 106.3625 -35.7925 109.6625 -36.8125 113.0625 C-37.43065044 114.80046051 -38.07002353 116.53137841 -38.75 118.24609375 C-39.08604248 119.10614014 -39.42208496 119.96618652 -39.76831055 120.85229492 C-40.11289307 121.7260376 -40.45747559 122.59978027 -40.8125 123.5 C-43.35663366 129.99569694 -45.68558242 136.30965371 -46.94921875 143.19921875 C-47.8125 145.0625 -47.8125 145.0625 -50.00390625 146.3203125 C-53.13581168 147.14793702 -55.826073 147.29384322 -59.0625 147.25 C-60.11953125 147.24355469 -61.1765625 147.23710938 -62.265625 147.23046875 C-64.8125 147.0625 -64.8125 147.0625 -65.8125 146.0625 C-66.21586561 140.57445515 -65.12963842 136.1895051 -63.20703125 131.1171875 C-62.93591019 130.37733612 -62.66478912 129.63748474 -62.38545227 128.87521362 C-59.8304793 121.96186553 -57.11824903 115.11017161 -54.34851074 108.28048706 C-52.8270347 104.52752377 -51.31901069 100.76914315 -49.80859375 97.01171875 C-49.48863434 96.21667435 -49.16867493 95.42162994 -48.83901978 94.60249329 C-42.39056683 78.56860717 -36.0622891 62.48654449 -29.73486328 46.40460205 C-28.88095854 44.23633269 -28.02494045 42.06891412 -27.16796875 39.90185547 C-22.10959168 27.10189399 -17.33611918 14.37807144 -13.8125 1.0625 C-9.18807639 -0.11445751 -4.73248229 -0.05116931 0 0 Z M-3.8125 25.0625 C-4.25005615 26.18406494 -4.6876123 27.30562988 -5.13842773 28.46118164 C-6.44111802 31.80026056 -7.74397133 35.13927583 -9.046875 38.47827148 C-10.51746309 42.24710564 -11.98744677 46.01617479 -13.45703125 49.78540039 C-16.58535102 57.80713689 -19.71428592 65.82843982 -22.87890625 73.8359375 C-23.30051025 74.90448975 -23.72211426 75.97304199 -24.15649414 77.07397461 C-24.90934745 78.97956002 -25.66490804 80.88407879 -26.42358398 82.78735352 C-26.74786377 83.60905029 -27.07214355 84.43074707 -27.40625 85.27734375 C-27.68146484 85.96948975 -27.95667969 86.66163574 -28.24023438 87.37475586 C-28.91953808 89.08115938 -28.91953808 89.08115938 -28.8125 91.0625 C-11.6525 91.0625 5.5075 91.0625 23.1875 91.0625 C17.58187013 76.40162187 11.93052079 61.75921235 6.19973755 47.14678955 C5.52462036 45.42318395 4.85134238 43.69885683 4.17990112 41.97381592 C3.22915485 39.53261148 2.27168823 37.09414761 1.3125 34.65625 C1.02641373 33.91778839 0.74032745 33.17932678 0.4455719 32.41848755 C-1.13867439 28.40313784 -1.13867439 28.40313784 -3.8125 25.0625 Z " fill="#000000" transform="translate(404.8125,633.9375)"/>
<path d="M0 0 C1.19334591 3.58003773 1.33543224 6.24315896 1 10 C-1.35409002 12.54213199 -2.83138693 12.97956729 -6.29034424 13.39872742 C-7.59606384 13.40983047 -8.90178345 13.42093353 -10.24707031 13.43237305 C-10.96941864 13.4425647 -11.69176697 13.45275635 -12.43600464 13.46325684 C-14.81679037 13.49338197 -17.19717373 13.50265173 -19.578125 13.51171875 C-21.23151995 13.52856585 -22.88490208 13.54671614 -24.53826904 13.56611633 C-28.88488768 13.61361932 -33.2314544 13.64342664 -37.57824707 13.66955566 C-42.01581069 13.69935974 -46.45319541 13.74589058 -50.890625 13.79101562 C-59.59366211 13.87705213 -68.29671551 13.94439574 -77 14 C-76.83734146 14.7243071 -76.67468292 15.4486142 -76.50709534 16.19487 C-76.02942276 18.83724033 -75.87925301 21.20286781 -75.88647461 23.88208008 C-75.88655014 24.82267776 -75.88662567 25.76327545 -75.88670349 26.7323761 C-75.89186478 27.7346373 -75.89702606 28.7368985 -75.90234375 29.76953125 C-75.9037587 30.80567062 -75.90517365 31.84181 -75.90663147 32.90934753 C-75.91221758 36.21042804 -75.92476758 39.51144008 -75.9375 42.8125 C-75.94251679 45.05403548 -75.94707939 47.29557202 -75.95117188 49.53710938 C-75.96218247 55.02476284 -75.97890682 60.51237653 -76 66 C-68.18467274 65.89208058 -60.3694303 65.77936606 -52.55426025 65.66066074 C-48.92471127 65.60567909 -45.29515396 65.55230114 -41.66552734 65.50268555 C-38.1576599 65.45467372 -34.6498808 65.40232214 -31.14212036 65.34705925 C-29.16371879 65.31699464 -27.18525185 65.2913345 -25.20678711 65.26576233 C-19.05838346 65.16529938 -13.08033075 64.93671762 -7 64 C-5.03904939 67.29439703 -3.98797255 69.3745726 -4.0625 73.25 C-5 76 -5 76 -6.64581299 77.15194702 C-9.71520827 78.25764075 -12.34072971 78.28203831 -15.60449219 78.31884766 C-16.25856552 78.32889328 -16.91263885 78.3389389 -17.58653259 78.34928894 C-19.73997145 78.38008234 -21.8932862 78.39714496 -24.046875 78.4140625 C-25.54332545 78.43277729 -27.03976538 78.45235094 -28.53619385 78.4727478 C-32.46850378 78.52404238 -36.40084791 78.56368228 -40.33331299 78.60089111 C-45.05496817 78.64799438 -49.77645399 78.70958072 -54.49797058 78.76873779 C-61.66524526 78.85691752 -68.83248802 78.92670467 -76 79 C-76 97.48 -76 115.96 -76 135 C-63.72943371 134.85090294 -63.72943371 134.85090294 -51.45898438 134.69335938 C-46.45111904 134.62718904 -41.44325473 134.5619875 -36.43530273 134.50268555 C-32.39577039 134.4547889 -28.35631762 134.40243886 -24.31688118 134.34705925 C-22.77921607 134.32674974 -21.24152923 134.3080187 -19.703825 134.29092598 C-17.54262359 134.26662738 -15.38156901 134.23661064 -13.22045898 134.20532227 C-11.99246078 134.18977798 -10.76446259 134.1742337 -9.49925232 134.15821838 C-5.94403787 133.99746968 -2.51240759 133.56126164 1 133 C3.13586678 136.20380017 3.23132175 137.01939967 3.125 140.6875 C3.10695313 141.49574219 3.08890625 142.30398438 3.0703125 143.13671875 C3.04710937 143.75160156 3.02390625 144.36648438 3 145 C-0.32926153 146.98847365 -2.89378683 147.2683786 -6.74536133 147.31884766 C-8.48678154 147.34865219 -8.48678154 147.34865219 -10.26338196 147.37905884 C-11.52353622 147.39061005 -12.78369049 147.40216125 -14.08203125 147.4140625 C-15.40120041 147.43342865 -16.72036957 147.4527948 -18.07951355 147.4727478 C-21.61031028 147.52418339 -25.14114854 147.56361887 -28.67211914 147.60089111 C-31.45547565 147.63224237 -34.23867563 147.6720846 -37.02191353 147.71246719 C-56.34821156 147.99207346 -75.67191229 148.049598 -95 148 C-96.1814625 145.637075 -96.13477608 144.20222291 -96.15148926 141.56619263 C-96.15983292 140.63313293 -96.16817657 139.70007324 -96.17677307 138.73873901 C-96.18095749 137.71136627 -96.18514191 136.68399353 -96.18945312 135.62548828 C-96.19774643 134.54541504 -96.20603973 133.4653418 -96.21458435 132.35253906 C-96.23202389 129.99754449 -96.24717991 127.64253218 -96.26036072 125.28750992 C-96.28140202 121.54326154 -96.3084352 117.79909889 -96.33703613 114.05490112 C-96.39176786 106.75375178 -96.44010442 99.45256989 -96.48697662 92.15136719 C-96.550353 82.29034505 -96.61722715 72.42936056 -96.69187927 62.5684166 C-96.71810079 58.91086865 -96.73914295 55.25331612 -96.7598877 51.59573364 C-96.87140404 35.04084968 -97.07947631 18.46163161 -99 2 C-93.54103699 1.23500438 -88.24379464 0.84252364 -82.7355957 0.81054688 C-81.95241974 0.80225357 -81.16924377 0.79396027 -80.36233521 0.78541565 C-78.67694832 0.76813805 -76.99153907 0.75293887 -75.3061161 0.73963928 C-72.63664953 0.71843923 -69.96729567 0.69143519 -67.29789734 0.66296387 C-60.67383534 0.5934789 -54.04969241 0.53373745 -47.42553711 0.47393799 C-41.81351444 0.42293041 -36.20155474 0.36810244 -30.58962059 0.30812073 C-27.96343756 0.28162985 -25.33724822 0.26077175 -22.71101379 0.2401123 C-21.09941318 0.22350626 -19.48781529 0.20663415 -17.8762207 0.18945312 C-16.78592308 0.1831765 -16.78592308 0.1831765 -15.67359924 0.17677307 C-0.06099357 -0.01568406 -0.06099357 -0.01568406 0 0 Z " fill="#000000" transform="translate(1797,633)"/>
<path d="M0 0 C1.19334591 3.58003773 1.33543224 6.24315896 1 10 C-1.35409002 12.54213199 -2.83138693 12.97956729 -6.29034424 13.39872742 C-7.59606384 13.40983047 -8.90178345 13.42093353 -10.24707031 13.43237305 C-10.96941864 13.4425647 -11.69176697 13.45275635 -12.43600464 13.46325684 C-14.81679037 13.49338197 -17.19717373 13.50265173 -19.578125 13.51171875 C-21.23151995 13.52856585 -22.88490208 13.54671614 -24.53826904 13.56611633 C-28.88488768 13.61361932 -33.2314544 13.64342664 -37.57824707 13.66955566 C-42.01581069 13.69935974 -46.45319541 13.74589058 -50.890625 13.79101562 C-59.59366211 13.87705213 -68.29671551 13.94439574 -77 14 C-76.83734146 14.7243071 -76.67468292 15.4486142 -76.50709534 16.19487 C-76.02942276 18.83724033 -75.87925301 21.20286781 -75.88647461 23.88208008 C-75.88655014 24.82267776 -75.88662567 25.76327545 -75.88670349 26.7323761 C-75.89186478 27.7346373 -75.89702606 28.7368985 -75.90234375 29.76953125 C-75.9037587 30.80567062 -75.90517365 31.84181 -75.90663147 32.90934753 C-75.91221758 36.21042804 -75.92476758 39.51144008 -75.9375 42.8125 C-75.94251679 45.05403548 -75.94707939 47.29557202 -75.95117188 49.53710938 C-75.96218247 55.02476284 -75.97890682 60.51237653 -76 66 C-68.18467274 65.89208058 -60.3694303 65.77936606 -52.55426025 65.66066074 C-48.92471127 65.60567909 -45.29515396 65.55230114 -41.66552734 65.50268555 C-38.1576599 65.45467372 -34.6498808 65.40232214 -31.14212036 65.34705925 C-29.16371879 65.31699464 -27.18525185 65.2913345 -25.20678711 65.26576233 C-19.05838346 65.16529938 -13.08033075 64.93671762 -7 64 C-5.03904939 67.29439703 -3.98797255 69.3745726 -4.0625 73.25 C-5 76 -5 76 -6.64581299 77.15194702 C-9.71520827 78.25764075 -12.34072971 78.28203831 -15.60449219 78.31884766 C-16.25856552 78.32889328 -16.91263885 78.3389389 -17.58653259 78.34928894 C-19.73997145 78.38008234 -21.8932862 78.39714496 -24.046875 78.4140625 C-25.54332545 78.43277729 -27.03976538 78.45235094 -28.53619385 78.4727478 C-32.46850378 78.52404238 -36.40084791 78.56368228 -40.33331299 78.60089111 C-45.05496817 78.64799438 -49.77645399 78.70958072 -54.49797058 78.76873779 C-61.66524526 78.85691752 -68.83248802 78.92670467 -76 79 C-76 97.48 -76 115.96 -76 135 C-63.72943371 134.85090294 -63.72943371 134.85090294 -51.45898438 134.69335938 C-46.45111904 134.62718904 -41.44325473 134.5619875 -36.43530273 134.50268555 C-32.39577039 134.4547889 -28.35631762 134.40243886 -24.31688118 134.34705925 C-22.77921607 134.32674974 -21.24152923 134.3080187 -19.703825 134.29092598 C-17.54262359 134.26662738 -15.38156901 134.23661064 -13.22045898 134.20532227 C-11.99246078 134.18977798 -10.76446259 134.1742337 -9.49925232 134.15821838 C-5.94403787 133.99746968 -2.51240759 133.56126164 1 133 C3.13586678 136.20380017 3.23132175 137.01939967 3.125 140.6875 C3.10695313 141.49574219 3.08890625 142.30398438 3.0703125 143.13671875 C3.04710937 143.75160156 3.02390625 144.36648438 3 145 C-0.32926153 146.98847365 -2.89378683 147.2683786 -6.74536133 147.31884766 C-8.48678154 147.34865219 -8.48678154 147.34865219 -10.26338196 147.37905884 C-11.52353622 147.39061005 -12.78369049 147.40216125 -14.08203125 147.4140625 C-15.40120041 147.43342865 -16.72036957 147.4527948 -18.07951355 147.4727478 C-21.61031028 147.52418339 -25.14114854 147.56361887 -28.67211914 147.60089111 C-31.45547565 147.63224237 -34.23867563 147.6720846 -37.02191353 147.71246719 C-56.34821156 147.99207346 -75.67191229 148.049598 -95 148 C-96.1814625 145.637075 -96.13477608 144.20222291 -96.15148926 141.56619263 C-96.15983292 140.63313293 -96.16817657 139.70007324 -96.17677307 138.73873901 C-96.18095749 137.71136627 -96.18514191 136.68399353 -96.18945312 135.62548828 C-96.19774643 134.54541504 -96.20603973 133.4653418 -96.21458435 132.35253906 C-96.23202389 129.99754449 -96.24717991 127.64253218 -96.26036072 125.28750992 C-96.28140202 121.54326154 -96.3084352 117.79909889 -96.33703613 114.05490112 C-96.39176786 106.75375178 -96.44010442 99.45256989 -96.48697662 92.15136719 C-96.550353 82.29034505 -96.61722715 72.42936056 -96.69187927 62.5684166 C-96.71810079 58.91086865 -96.73914295 55.25331612 -96.7598877 51.59573364 C-96.87140404 35.04084968 -97.07947631 18.46163161 -99 2 C-93.54103699 1.23500438 -88.24379464 0.84252364 -82.7355957 0.81054688 C-81.95241974 0.80225357 -81.16924377 0.79396027 -80.36233521 0.78541565 C-78.67694832 0.76813805 -76.99153907 0.75293887 -75.3061161 0.73963928 C-72.63664953 0.71843923 -69.96729567 0.69143519 -67.29789734 0.66296387 C-60.67383534 0.5934789 -54.04969241 0.53373745 -47.42553711 0.47393799 C-41.81351444 0.42293041 -36.20155474 0.36810244 -30.58962059 0.30812073 C-27.96343756 0.28162985 -25.33724822 0.26077175 -22.71101379 0.2401123 C-21.09941318 0.22350626 -19.48781529 0.20663415 -17.8762207 0.18945312 C-16.78592308 0.1831765 -16.78592308 0.1831765 -15.67359924 0.17677307 C-0.06099357 -0.01568406 -0.06099357 -0.01568406 0 0 Z " fill="#000000" transform="translate(853,633)"/>
<path d="M0 0 C2.82667473 2.984296 3.9361755 5.10829443 4.5390625 9.15625 C3.94661485 13.30338356 2.33001536 14.6506625 -0.8984375 17.21875 C-2.796875 17.8125 -2.796875 17.8125 -4.8984375 18.21875 C-5.60742188 18.36699219 -6.31640625 18.51523437 -7.046875 18.66796875 C-9.6131037 18.94260024 -11.41607536 18.97084921 -13.8984375 18.21875 C-15.78043941 15.89656626 -17.01582705 13.4871376 -18.3828125 10.83203125 C-21.91174274 4.74735515 -28.01206447 1.58760389 -34.6171875 -0.3125 C-42.96405667 -2.0276101 -51.01508232 -0.60563568 -58.390625 3.66015625 C-63.93005508 7.57408144 -67.2178721 11.59665455 -68.8984375 18.21875 C-69.95540973 24.74972577 -68.63969471 29.80881277 -64.8984375 35.21875 C-60.49369123 39.81601393 -55.6633475 42.6134039 -49.8359375 45.03125 C-49.06934814 45.36181396 -48.30275879 45.69237793 -47.51293945 46.03295898 C-42.18637384 48.31212214 -36.81136563 50.47005729 -31.4362793 52.6315918 C-1.81080363 64.58074511 -1.81080363 64.58074511 4.4375 76.83984375 C9.10300613 87.97418994 9.50745959 98.88930035 5.1015625 110.21875 C-0.46147334 120.94023725 -9.16750865 127.35774496 -20.55004883 131.08764648 C-28.41483712 133.19637616 -35.77865007 133.67352957 -43.8984375 133.59375 C-45.07921875 133.60535156 -46.26 133.61695313 -47.4765625 133.62890625 C-62.92998097 133.5778487 -75.56382284 129.57407215 -87.0859375 119.18359375 C-90.99917781 114.94143885 -91.39290192 111.19404541 -91.28515625 105.56640625 C-90.8984375 103.21875 -90.8984375 103.21875 -88.6484375 100.65625 C-83.5785276 98.00606983 -79.5565267 98.12444851 -73.8984375 98.21875 C-73.5684375 99.353125 -73.2384375 100.4875 -72.8984375 101.65625 C-70.28084029 108.57506329 -65.23181608 114.32246497 -58.6484375 117.71875 C-49.68614434 121.71845108 -38.00522621 121.68047091 -28.7734375 118.53125 C-22.30052301 115.74605291 -17.55078344 112.23536881 -14.59765625 105.65625 C-12.94128861 99.88209687 -12.70642351 93.54760013 -14.74609375 87.8515625 C-23.03687214 73.40593507 -40.73991722 68.25210777 -55.33764648 62.61962891 C-68.94498458 57.34711825 -81.24624985 50.32326644 -87.8359375 36.71875 C-90.63099116 28.01914549 -90.34726667 15.75788919 -86.35546875 7.4921875 C-79.02301129 -3.94880511 -70.47373487 -9.59471012 -57.54296875 -12.99609375 C-36.60978353 -17.50581532 -15.98622014 -14.45193895 0 0 Z " fill="#000000" transform="translate(681.8984375,647.78125)"/>
<path d="M0 0 C2.82667473 2.984296 3.9361755 5.10829443 4.5390625 9.15625 C3.94661485 13.30338356 2.33001536 14.6506625 -0.8984375 17.21875 C-2.796875 17.8125 -2.796875 17.8125 -4.8984375 18.21875 C-5.60742188 18.36699219 -6.31640625 18.51523437 -7.046875 18.66796875 C-9.6131037 18.94260024 -11.41607536 18.97084921 -13.8984375 18.21875 C-15.78043941 15.89656626 -17.01582705 13.4871376 -18.3828125 10.83203125 C-21.91174274 4.74735515 -28.01206447 1.58760389 -34.6171875 -0.3125 C-42.96405667 -2.0276101 -51.01508232 -0.60563568 -58.390625 3.66015625 C-63.93005508 7.57408144 -67.2178721 11.59665455 -68.8984375 18.21875 C-69.95540973 24.74972577 -68.63969471 29.80881277 -64.8984375 35.21875 C-60.49369123 39.81601393 -55.6633475 42.6134039 -49.8359375 45.03125 C-49.06934814 45.36181396 -48.30275879 45.69237793 -47.51293945 46.03295898 C-42.18637384 48.31212214 -36.81136563 50.47005729 -31.4362793 52.6315918 C-1.81080363 64.58074511 -1.81080363 64.58074511 4.4375 76.83984375 C9.10300613 87.97418994 9.50745959 98.88930035 5.1015625 110.21875 C-0.46147334 120.94023725 -9.16750865 127.35774496 -20.55004883 131.08764648 C-28.41483712 133.19637616 -35.77865007 133.67352957 -43.8984375 133.59375 C-45.07921875 133.60535156 -46.26 133.61695313 -47.4765625 133.62890625 C-62.92998097 133.5778487 -75.56382284 129.57407215 -87.0859375 119.18359375 C-90.99917781 114.94143885 -91.39290192 111.19404541 -91.28515625 105.56640625 C-90.8984375 103.21875 -90.8984375 103.21875 -88.6484375 100.65625 C-83.5785276 98.00606983 -79.5565267 98.12444851 -73.8984375 98.21875 C-73.5684375 99.353125 -73.2384375 100.4875 -72.8984375 101.65625 C-70.28084029 108.57506329 -65.23181608 114.32246497 -58.6484375 117.71875 C-49.68614434 121.71845108 -38.00522621 121.68047091 -28.7734375 118.53125 C-22.30052301 115.74605291 -17.55078344 112.23536881 -14.59765625 105.65625 C-12.94128861 99.88209687 -12.70642351 93.54760013 -14.74609375 87.8515625 C-23.03687214 73.40593507 -40.73991722 68.25210777 -55.33764648 62.61962891 C-68.94498458 57.34711825 -81.24624985 50.32326644 -87.8359375 36.71875 C-90.63099116 28.01914549 -90.34726667 15.75788919 -86.35546875 7.4921875 C-79.02301129 -3.94880511 -70.47373487 -9.59471012 -57.54296875 -12.99609375 C-36.60978353 -17.50581532 -15.98622014 -14.45193895 0 0 Z " fill="#000000" transform="translate(569.8984375,647.78125)"/>
<path d="M0 0 C3.60727803 3.96549205 4.8063286 6.6477455 5.15625 11.9140625 C5 14 5 14 3.5 16.4375 C0.36697383 18.39564135 -2.38233708 19.25151802 -6 20 C-7.010625 20.226875 -8.02125 20.45375 -9.0625 20.6875 C-12.69608749 19.83708591 -12.93677667 19.00940113 -14.875 15.9375 C-15.37257813 15.11765625 -15.87015625 14.2978125 -16.3828125 13.453125 C-21.61992099 5.50891212 -29.43115976 1.53000937 -38.515625 -0.5859375 C-50.44456948 -2.57409491 -61.65283517 0.22291866 -71.5390625 7.078125 C-82.66718305 15.76865724 -89.36641541 29.91021285 -91.59765625 43.69140625 C-93.86038302 64.62036904 -92.55466906 85.35588352 -79.8828125 102.9375 C-73.15373766 111.05651489 -64.4403497 116.77872816 -54 119 C-36.84148607 120.02614642 -22.17111795 118.5182338 -8 108 C-4.4913604 105.66090693 -3.12910567 105.58708943 1 106 C3.875 107.5 3.875 107.5 6 109 C2.99197711 117.79618815 -4.81753456 122.27205307 -12.75 126.3125 C-29.80822837 134.5102532 -51.78319197 136.44952677 -70.12890625 131.09765625 C-80.62528876 127.08475355 -89.10976749 122.11728956 -97 114 C-97.63421875 113.38640625 -98.2684375 112.7728125 -98.921875 112.140625 C-113.78991657 96.74628107 -115.41928672 75.50989113 -115.21484375 55.265625 C-114.74263267 35.61460485 -107.78220343 17.97272805 -94.1875 3.6875 C-70.07005352 -19.21856789 -25.54535653 -22.86092923 0 0 Z " fill="#000000" transform="translate(1117,648)"/>
<path d="M0 0 C3.60727803 3.96549205 4.8063286 6.6477455 5.15625 11.9140625 C5 14 5 14 3.5 16.4375 C0.36697383 18.39564135 -2.38233708 19.25151802 -6 20 C-7.010625 20.226875 -8.02125 20.45375 -9.0625 20.6875 C-12.69608749 19.83708591 -12.93677667 19.00940113 -14.875 15.9375 C-15.37257813 15.11765625 -15.87015625 14.2978125 -16.3828125 13.453125 C-21.61992099 5.50891212 -29.43115976 1.53000937 -38.515625 -0.5859375 C-50.44456948 -2.57409491 -61.65283517 0.22291866 -71.5390625 7.078125 C-82.66718305 15.76865724 -89.36641541 29.91021285 -91.59765625 43.69140625 C-93.86038302 64.62036904 -92.55466906 85.35588352 -79.8828125 102.9375 C-73.15373766 111.05651489 -64.4403497 116.77872816 -54 119 C-36.84148607 120.02614642 -22.17111795 118.5182338 -8 108 C-4.4913604 105.66090693 -3.12910567 105.58708943 1 106 C3.875 107.5 3.875 107.5 6 109 C2.99197711 117.79618815 -4.81753456 122.27205307 -12.75 126.3125 C-29.80822837 134.5102532 -51.78319197 136.44952677 -70.12890625 131.09765625 C-80.62528876 127.08475355 -89.10976749 122.11728956 -97 114 C-97.63421875 113.38640625 -98.2684375 112.7728125 -98.921875 112.140625 C-113.78991657 96.74628107 -115.41928672 75.50989113 -115.21484375 55.265625 C-114.74263267 35.61460485 -107.78220343 17.97272805 -94.1875 3.6875 C-70.07005352 -19.21856789 -25.54535653 -22.86092923 0 0 Z " fill="#000000" transform="translate(205,648)"/>
<path d="M0 0 C0.74056641 0.00451172 1.48113281 0.00902344 2.24414062 0.01367188 C4.05862899 0.02537825 5.87307534 0.04331102 7.6875 0.0625 C8.6373184 3.26687604 8.81097477 6.14263593 8.80775452 9.4788208 C8.80912918 10.57815948 8.81050385 11.67749817 8.81192017 12.81015015 C8.80832489 14.01136505 8.80472961 15.21257996 8.80102539 16.45019531 C8.80117142 17.71874359 8.80131744 18.98729187 8.8014679 20.29428101 C8.80175474 23.76915411 8.79587617 27.24399268 8.78889394 30.71885777 C8.7826417 34.3516936 8.78205512 37.98453022 8.78086853 41.61737061 C8.77776074 48.49502588 8.76955477 55.37266525 8.75951904 62.25031352 C8.74834078 70.08096851 8.74284313 77.91162427 8.73782361 85.74228525 C8.72737171 101.84903281 8.70978294 117.95576437 8.6875 134.0625 C16.36137352 133.96344132 24.03522983 133.86376709 31.70898438 133.75585938 C36.40939438 133.68978701 41.10980364 133.62463112 45.81030273 133.56518555 C49.60345915 133.51715446 53.39653438 133.46480269 57.18959236 133.40955925 C58.63070697 133.38930967 60.07184368 133.37057007 61.51299858 133.35342598 C68.95987557 133.26385492 76.2980759 133.06415373 83.6875 132.0625 C86.72335982 138.25565403 86.72335982 138.25565403 86.5625 141.875 C85.6875 144.0625 85.6875 144.0625 82.6875 146.0625 C80.13015747 146.33424377 80.13015747 146.33424377 77.02392578 146.36547852 C75.2727092 146.39044151 75.2727092 146.39044151 73.4861145 146.41590881 C71.57873001 146.42853004 71.57873001 146.42853004 69.6328125 146.44140625 C68.29408613 146.45762812 66.95537111 146.4748128 65.6166687 146.49290466 C62.06699133 146.5387106 58.517296 146.57335506 54.96746826 146.60510254 C49.39960561 146.65651227 43.83189552 146.72328361 38.26421356 146.79124069 C36.88582591 146.80800703 35.50743326 146.82436752 34.12903595 146.84032059 C19.63918937 147.01110845 5.16692426 147.48741409 -9.3125 148.0625 C-10.93018419 144.49117205 -11.56592479 141.69766608 -11.58424377 137.78544617 C-11.5939621 136.74151199 -11.60368042 135.69757782 -11.61369324 134.62200928 C-11.61428238 133.48692932 -11.61487152 132.35184937 -11.61547852 131.18237305 C-11.62391785 129.97839371 -11.63235718 128.77441437 -11.64105225 127.53395081 C-11.65798929 124.91861786 -11.67135886 122.30355739 -11.67859077 119.68820763 C-11.69012791 115.5373254 -11.7156142 111.38659833 -11.74290466 107.23579407 C-11.78454472 100.65351087 -11.81694724 94.0712199 -11.84537882 87.48886758 C-11.8962171 75.74675769 -11.95917958 64.00471797 -12.03071922 52.26271659 C-12.05135113 48.82049806 -12.06968986 45.37829725 -12.08270454 41.93604088 C-12.14777221 21.47892362 -12.14777221 21.47892362 -13.3125 1.0625 C-8.83720308 0.08044927 -4.56519757 -0.05303625 0 0 Z " fill="#000000" transform="translate(241.3125,633.9375)"/>
<path d="M0 0 C11.55 0 23.1 0 35 0 C35 23.76 35 47.52 35 72 C28.4 72 21.8 72 15 72 C14.63648438 69.6075 14.27296875 67.215 13.8984375 64.75 C11.09343209 46.56102219 7.9285273 28.7537426 3 11 C2.01 7.37 1.02 3.74 0 0 Z " fill="#000000" transform="translate(1392,812)"/>
<path d="M0 0 C6.6 0 13.2 0 20 0 C20 22.77 20 45.54 20 69 C9.11 69 -1.78 69 -13 69 C-12.443125 66.545625 -11.88625 64.09125 -11.3125 61.5625 C-6.76333213 41.14937178 -3.0095628 20.69704918 0 0 Z " fill="#000000" transform="translate(1407,522)"/>
</svg>